<svg width="194" height="49" viewBox="0 0 194 49" fill="none" xmlns="http://www.w3.org/2000/svg">
<g clip-path="url(#clip0_726_2554)">
<path d="M7.02947 7.52947C11.3725 3.18668 17.373 0.5 24.0001 0.5C30.6273 0.5 36.6275 3.18668 40.9705 7.52947C45.3138 11.8723 48 17.873 48 24.4999C48 31.1268 45.3135 37.1273 40.9705 41.4703C36.6275 45.8136 30.6275 48.4998 24.0001 48.4998C17.3727 48.4998 11.3725 45.8133 7.0297 41.4703C2.68668 37.1275 0 31.1275 0 24.5001C0 17.8727 2.68668 11.8725 7.02947 7.52947ZM24.0001 2.75718C17.9957 2.75718 12.5596 5.19096 8.62526 9.12526C4.69096 13.0596 2.25718 18.4957 2.25718 24.5001C2.25718 30.5045 4.69096 35.9407 8.62526 39.875C12.5596 43.8095 17.9957 46.2431 24.0001 46.2431C30.0045 46.2431 35.4407 43.8095 39.375 39.875C43.3095 35.9407 45.743 30.5049 45.743 24.5001C45.743 18.4953 43.3095 13.0596 39.375 9.12526C35.4407 5.19096 30.0047 2.75718 24.0001 2.75718Z" fill="currentColor"/>
<path d="M41.9026 37.608C42.5256 37.608 43.0312 38.1134 43.0312 38.7366C43.0312 39.3598 42.5259 39.8652 41.9026 39.8652H34.9419C31.2962 39.8652 29.9965 37.4481 28.7669 35.1614C28.4496 34.5709 28.1375 33.9908 27.8 33.5124C27.2131 32.6808 26.5497 32.0368 25.8545 31.5924C25.1022 31.1111 24.3117 30.8591 23.5452 30.852C22.8043 30.8454 22.0671 31.0718 21.392 31.5452C21.8763 31.7348 22.2834 32.0149 22.6147 32.3555C23.1132 32.8684 23.4248 33.5138 23.5614 34.1884C23.6567 34.6581 23.6681 35.1384 23.5996 35.5916C23.3668 37.1301 22.4674 38.1899 21.1585 38.8785C19.8184 39.5833 18.0519 39.8652 16.1877 39.8652H6.09801C5.47477 39.8652 4.96942 39.3598 4.96942 38.7366C4.96942 38.1134 5.47477 37.608 6.09801 37.608H16.1877C17.7229 37.608 19.1289 37.4017 20.1092 36.8861C20.7914 36.5272 21.257 35.999 21.3691 35.2567C21.4011 35.044 21.3979 34.8288 21.3575 34.6291C21.304 34.3639 21.1859 34.1151 21.0011 33.925C20.8236 33.7425 20.5666 33.6068 20.2223 33.5549C19.941 33.5126 19.6121 33.5216 19.2331 33.5972C18.955 33.6559 18.6544 33.6102 18.396 33.4455C17.8726 33.1119 17.7186 32.4172 18.0521 31.8936C18.6466 30.9646 19.3368 30.2388 20.0868 29.7095C21.1576 28.954 22.3488 28.5932 23.5628 28.6037C24.7545 28.6145 25.9525 28.9866 27.0628 29.6967C28.007 30.3007 28.8877 31.1463 29.6428 32.2164C30.0561 32.8021 30.4006 33.4427 30.7508 34.0943C31.669 35.8025 32.6397 37.6078 34.9419 37.6078H41.9026V37.608Z" fill="currentColor"/>
<path d="M1.71917 29.905C1.09593 29.905 0.590576 29.3997 0.590576 28.7765C0.590576 28.1532 1.09593 27.6479 1.71917 27.6479H14.9246C17.227 27.6479 18.1979 25.8421 19.1163 24.1342C19.4668 23.4826 19.8109 22.8422 20.2244 22.2564C21.2358 20.8233 22.4669 19.7955 23.7735 19.2115C25.1675 18.5883 26.6423 18.4691 28.0379 18.8935C28.7802 19.1192 29.4921 19.4962 30.1475 20.0292C30.7561 20.5245 31.319 21.1578 31.8146 21.9332C32.1481 22.4566 31.9941 23.1513 31.471 23.4849C31.2126 23.6498 30.9122 23.6955 30.6339 23.6366C30.2553 23.5612 29.9259 23.552 29.6451 23.5945C29.3004 23.6464 29.0434 23.7823 28.8658 23.9649C28.6808 24.1554 28.5631 24.4044 28.5095 24.6694C28.4692 24.8689 28.466 25.0841 28.498 25.2961C28.6102 26.0388 29.0756 26.5666 29.7578 26.9257C30.7385 27.4416 32.1442 27.6479 33.6795 27.6479H46.2818C46.9048 27.6479 47.4101 28.1532 47.4101 28.7765C47.4101 29.3997 46.9048 29.905 46.2818 29.905H33.6795C31.8153 29.905 30.0486 29.6231 28.7084 28.9181C27.4001 28.2297 26.5004 27.1697 26.2678 25.631C26.1997 25.1784 26.2107 24.6989 26.3057 24.2292C26.4424 23.5548 26.7535 22.9094 27.2525 22.3958C27.5842 22.0549 27.9913 21.7744 28.4766 21.5846C28.1247 21.3374 27.7583 21.1578 27.3857 21.0445C26.5214 20.7817 25.5891 20.864 24.691 21.2656C23.7488 21.6869 22.8398 22.4577 22.0674 23.5523C21.7299 24.0304 21.4181 24.6107 21.1005 25.2008C19.8709 27.4877 18.5712 29.905 14.925 29.905H1.71917Z" fill="currentColor"/>
<path d="M2.55648 29.5266C2.14274 29.9888 1.43201 30.0283 0.969604 29.6146C0.507203 29.2008 0.467679 28.4899 0.881419 28.0277L10.927 16.8323C11.1486 16.5846 11.4559 16.4578 11.7643 16.4578V16.453H13.5563L19.8159 9.4777C20.2296 9.01553 20.9404 8.976 21.4028 9.38974C21.4366 9.42013 21.4684 9.45211 21.4976 9.48547L26.4584 15.0144C26.8721 15.4768 26.8326 16.1876 26.3704 16.6013C25.908 17.015 25.197 16.9755 24.7835 16.5133L20.6534 11.9101L14.9586 18.256C14.7528 18.5318 14.424 18.7104 14.0537 18.7104H12.2617L2.55625 29.5268L2.55648 29.5266Z" fill="currentColor"/>
<path d="M26.4545 16.5169C26.0382 16.9768 25.3275 17.0124 24.8674 16.5962C24.4075 16.1799 24.3716 15.4692 24.7881 15.0091L28.3884 11.0298C28.8046 10.5699 29.5154 10.5342 29.9755 10.9505C30.0082 10.9802 30.0388 11.0115 30.0673 11.0439L38.8064 21.0112H40.4625C40.8337 21.0112 41.1629 21.1905 41.3685 21.4672L47.1275 28.0358C47.5367 28.5033 47.4894 29.2138 47.0218 29.6227C46.5543 30.0316 45.8436 29.9844 45.4349 29.5169L39.9564 23.2681H38.3001V23.2642C37.9873 23.2642 37.6757 23.134 37.4537 22.8802L29.2076 13.474L26.4547 16.5169H26.4545Z" fill="currentColor"/>
</g>
<path d="M70.982 12.342C70.982 13.0513 70.811 13.7163 70.469 14.337C70.1397 14.9577 69.614 15.458 68.892 15.838C68.1827 16.218 67.2833 16.408 66.194 16.408H63.971V21.5H61.311V8.238H66.194C67.22 8.238 68.094 8.41533 68.816 8.77C69.538 9.12467 70.0763 9.61233 70.431 10.233C70.7983 10.8537 70.982 11.5567 70.982 12.342ZM66.08 14.261C66.8147 14.261 67.3593 14.0963 67.714 13.767C68.0687 13.425 68.246 12.95 68.246 12.342C68.246 11.05 67.524 10.404 66.08 10.404H63.971V14.261H66.08ZM80.6226 18.973H75.3406L74.4666 21.5H71.6736L76.4426 8.219H79.5396L84.3086 21.5H81.4966L80.6226 18.973ZM79.9006 16.845L77.9816 11.297L76.0626 16.845H79.9006ZM92.5512 21.5L89.6252 16.332H88.3712V21.5H85.7112V8.238H90.6892C91.7152 8.238 92.5892 8.42167 93.3112 8.789C94.0332 9.14367 94.5715 9.63133 94.9262 10.252C95.2935 10.86 95.4772 11.544 95.4772 12.304C95.4772 13.178 95.2238 13.9697 94.7172 14.679C94.2105 15.3757 93.4568 15.857 92.4562 16.123L95.6292 21.5H92.5512ZM88.3712 14.337H90.5942C91.3162 14.337 91.8545 14.166 92.2092 13.824C92.5638 13.4693 92.7412 12.9817 92.7412 12.361C92.7412 11.753 92.5638 11.2843 92.2092 10.955C91.8545 10.613 91.3162 10.442 90.5942 10.442H88.3712V14.337ZM104.989 21.5L100.163 15.591V21.5H97.503V8.238H100.163V14.185L104.989 8.238H108.2L102.728 14.812L108.352 21.5H104.989ZM114.301 21.633C113.376 21.633 112.54 21.4747 111.793 21.158C111.058 20.8413 110.475 20.3853 110.045 19.79C109.614 19.1947 109.392 18.4917 109.38 17.681H112.23C112.268 18.2257 112.458 18.6563 112.8 18.973C113.154 19.2897 113.636 19.448 114.244 19.448C114.864 19.448 115.352 19.3023 115.707 19.011C116.061 18.707 116.239 18.3143 116.239 17.833C116.239 17.4403 116.118 17.1173 115.878 16.864C115.637 16.6107 115.333 16.4143 114.966 16.275C114.611 16.123 114.117 15.9583 113.484 15.781C112.622 15.5277 111.919 15.2807 111.375 15.04C110.843 14.7867 110.38 14.413 109.988 13.919C109.608 13.4123 109.418 12.741 109.418 11.905C109.418 11.1197 109.614 10.4357 110.007 9.853C110.399 9.27033 110.95 8.827 111.66 8.523C112.369 8.20633 113.18 8.048 114.092 8.048C115.46 8.048 116.568 8.38367 117.417 9.055C118.278 9.71367 118.753 10.6383 118.842 11.829H115.916C115.89 11.373 115.694 10.9993 115.327 10.708C114.972 10.404 114.497 10.252 113.902 10.252C113.382 10.252 112.964 10.385 112.648 10.651C112.344 10.917 112.192 11.3033 112.192 11.81C112.192 12.1647 112.306 12.4623 112.534 12.703C112.774 12.931 113.066 13.121 113.408 13.273C113.762 13.4123 114.256 13.577 114.89 13.767C115.751 14.0203 116.454 14.2737 116.999 14.527C117.543 14.7803 118.012 15.1603 118.405 15.667C118.797 16.1737 118.994 16.8387 118.994 17.662C118.994 18.3713 118.81 19.03 118.443 19.638C118.075 20.246 117.537 20.7337 116.828 21.101C116.118 21.4557 115.276 21.633 114.301 21.633ZM71.514 41.5L70.07 40.075C68.8413 41.177 67.3403 41.728 65.567 41.728C64.5917 41.728 63.7303 41.5633 62.983 41.234C62.2483 40.892 61.6783 40.417 61.273 39.809C60.8677 39.1883 60.665 38.4727 60.665 37.662C60.665 36.788 60.912 36.0027 61.406 35.306C61.9 34.6093 62.6283 34.0457 63.591 33.615C63.249 33.197 63.002 32.798 62.85 32.418C62.698 32.0253 62.622 31.6073 62.622 31.164C62.622 30.556 62.7803 30.0113 63.097 29.53C63.4137 29.036 63.8633 28.6497 64.446 28.371C65.0413 28.0923 65.7317 27.953 66.517 27.953C67.315 27.953 67.999 28.105 68.569 28.409C69.139 28.713 69.5633 29.1183 69.842 29.625C70.1207 30.1317 70.241 30.6953 70.203 31.316H67.619C67.6317 30.898 67.5303 30.5813 67.315 30.366C67.0997 30.138 66.8083 30.024 66.441 30.024C66.0863 30.024 65.7887 30.1317 65.548 30.347C65.32 30.5497 65.206 30.8157 65.206 31.145C65.206 31.4617 65.301 31.7783 65.491 32.095C65.681 32.399 65.9913 32.779 66.422 33.235L69.766 36.541C69.7913 36.5157 69.8103 36.4903 69.823 36.465C69.8357 36.4397 69.8483 36.4143 69.861 36.389L70.944 34.584H73.718L72.388 36.921C72.1347 37.415 71.8623 37.8837 71.571 38.327L74.782 41.5H71.514ZM65.643 39.524C66.6817 39.524 67.6 39.1567 68.398 38.422L65.13 35.192C63.9013 35.7367 63.287 36.5093 63.287 37.51C63.287 38.08 63.5023 38.5613 63.933 38.954C64.3637 39.334 64.9337 39.524 65.643 39.524ZM86.7064 41.5L83.7804 36.332H82.5264V41.5H79.8664V28.238H84.8444C85.8704 28.238 86.7444 28.4217 87.4664 28.789C88.1884 29.1437 88.7268 29.6313 89.0814 30.252C89.4488 30.86 89.6324 31.544 89.6324 32.304C89.6324 33.178 89.3791 33.9697 88.8724 34.679C88.3658 35.3757 87.6121 35.857 86.6114 36.123L89.7844 41.5H86.7064ZM82.5264 34.337H84.7494C85.4714 34.337 86.0098 34.166 86.3644 33.824C86.7191 33.4693 86.8964 32.9817 86.8964 32.361C86.8964 31.753 86.7191 31.2843 86.3644 30.955C86.0098 30.613 85.4714 30.442 84.7494 30.442H82.5264V34.337ZM94.3183 30.385V33.71H98.7833V35.819H94.3183V39.334H99.3533V41.5H91.6583V28.219H99.3533V30.385H94.3183ZM100.745 34.85C100.745 33.5453 101.036 32.38 101.619 31.354C102.214 30.3153 103.018 29.511 104.032 28.941C105.058 28.3583 106.204 28.067 107.471 28.067C108.953 28.067 110.251 28.447 111.366 29.207C112.48 29.967 113.259 31.0183 113.703 32.361H110.644C110.34 31.7277 109.909 31.2527 109.352 30.936C108.807 30.6193 108.174 30.461 107.452 30.461C106.679 30.461 105.989 30.6447 105.381 31.012C104.785 31.3667 104.317 31.8733 103.975 32.532C103.645 33.1907 103.481 33.9633 103.481 34.85C103.481 35.724 103.645 36.4967 103.975 37.168C104.317 37.8267 104.785 38.3397 105.381 38.707C105.989 39.0617 106.679 39.239 107.452 39.239C108.174 39.239 108.807 39.0807 109.352 38.764C109.909 38.4347 110.34 37.9533 110.644 37.32H113.703C113.259 38.6753 112.48 39.733 111.366 40.493C110.264 41.2403 108.965 41.614 107.471 41.614C106.204 41.614 105.058 41.329 104.032 40.759C103.018 40.1763 102.214 39.372 101.619 38.346C101.036 37.32 100.745 36.1547 100.745 34.85ZM122.435 41.5L119.509 36.332H118.255V41.5H115.595V28.238H120.573C121.599 28.238 122.473 28.4217 123.195 28.789C123.917 29.1437 124.455 29.6313 124.81 30.252C125.177 30.86 125.361 31.544 125.361 32.304C125.361 33.178 125.107 33.9697 124.601 34.679C124.094 35.3757 123.34 35.857 122.34 36.123L125.513 41.5H122.435ZM118.255 34.337H120.478C121.2 34.337 121.738 34.166 122.093 33.824C122.447 33.4693 122.625 32.9817 122.625 32.361C122.625 31.753 122.447 31.2843 122.093 30.955C121.738 30.613 121.2 30.442 120.478 30.442H118.255V34.337ZM130.046 30.385V33.71H134.511V35.819H130.046V39.334H135.081V41.5H127.386V28.219H135.081V30.385H130.046ZM145.251 38.973H139.969L139.095 41.5H136.302L141.071 28.219H144.168L148.937 41.5H146.125L145.251 38.973ZM144.529 36.845L142.61 31.297L140.691 36.845H144.529ZM159.364 28.238V30.385H155.83V41.5H153.17V30.385H149.636V28.238H159.364ZM163.585 28.238V41.5H160.925V28.238H163.585ZM171.989 41.633C170.748 41.633 169.608 41.3417 168.569 40.759C167.531 40.1763 166.707 39.372 166.099 38.346C165.491 37.3073 165.187 36.1357 165.187 34.831C165.187 33.539 165.491 32.38 166.099 31.354C166.707 30.3153 167.531 29.5047 168.569 28.922C169.608 28.3393 170.748 28.048 171.989 28.048C173.243 28.048 174.383 28.3393 175.409 28.922C176.448 29.5047 177.265 30.3153 177.86 31.354C178.468 32.38 178.772 33.539 178.772 34.831C178.772 36.1357 178.468 37.3073 177.86 38.346C177.265 39.372 176.448 40.1763 175.409 40.759C174.371 41.3417 173.231 41.633 171.989 41.633ZM171.989 39.258C172.787 39.258 173.49 39.0807 174.098 38.726C174.706 38.3587 175.181 37.8393 175.523 37.168C175.865 36.4967 176.036 35.7177 176.036 34.831C176.036 33.9443 175.865 33.1717 175.523 32.513C175.181 31.8417 174.706 31.3287 174.098 30.974C173.49 30.6193 172.787 30.442 171.989 30.442C171.191 30.442 170.482 30.6193 169.861 30.974C169.253 31.3287 168.778 31.8417 168.436 32.513C168.094 33.1717 167.923 33.9443 167.923 34.831C167.923 35.7177 168.094 36.4967 168.436 37.168C168.778 37.8393 169.253 38.3587 169.861 38.726C170.482 39.0807 171.191 39.258 171.989 39.258ZM191.714 41.5H189.054L183.031 32.399V41.5H180.371V28.219H183.031L189.054 37.339V28.219H191.714V41.5Z" fill="currentColor"/>

</svg>
